<svg height="21" viewBox="0 0 344.28 88" width="83" xmlns="http://www.w3.org/2000/svg">
<g data-name="Layer 2" id="Layer_2">
<g data-name="Layer 1" id="Layer_1-2">
<g data-name="Layer 2" id="Layer_2-2">
<g data-name="Layer 2-2" id="Layer_2-2-2">
<path class="color-1" d="M109.55,24.88l7.61.06v7.73a17.85,17.85,0,0,1,12.14-8.4,21.54,21.54,0,0,1,5.32-.18,15.44,15.44,0,0,1,8.76,3A13.92,13.92,0,0,1,147.24,32a18.07,18.07,0,0,1,1.45,4.65,25.4,25.4,0,0,1,.51,5.9V71.39h-7.67l.06-25.74a65.68,65.68,0,0,0-.47-6.86,10.12,10.12,0,0,0-.86-3A10.45,10.45,0,0,0,139,33.7a10.2,10.2,0,0,0-2.31-2.09,11.59,11.59,0,0,0-8.41-1.44A13.3,13.3,0,0,0,123.49,32c-5.37,3.43-6.25,9.66-6.35,10.44-.07.55-.09,1-.1,1.27l.06,27.65h-7.49Z" fill="currentColor"></path>
<path class="color-1" d="M327.85,24.82h7.73V60.15a4.85,4.85,0,0,0,.16,1,5.15,5.15,0,0,0,.66,1.38A4.93,4.93,0,0,0,337.75,64a4.29,4.29,0,0,0,2.61.68h1.34a15,15,0,0,0,2.58-.4V71a21.47,21.47,0,0,1-4.65.54,12.15,12.15,0,0,1-6.31-1.16A10.15,10.15,0,0,1,331,68.52a11.81,11.81,0,0,1-3.11-7.22Z" fill="currentColor"></path>
<circle class="color-1" cx="331.87" cy="8.26" fill="currentColor" r="4.92"></circle>
<path class="color-1" d="M196.77,33a13.56,13.56,0,0,0-3.23-5.22,13.82,13.82,0,0,0-7-3.39A24.59,24.59,0,0,0,179.8,24a36.31,36.31,0,0,0-5,.47,29,29,0,0,0-9.92,3.73v7.43s5.68-4.59,11.78-5.32a14.28,14.28,0,0,1,5.09-.13c1.66.25,4.51.68,6.36,3a8,8,0,0,1,1.12,2,14.33,14.33,0,0,1,1.08,6.75L174.61,44a5.26,5.26,0,0,0-.88.17,19.5,19.5,0,0,0-8,3.12A13.64,13.64,0,0,0,162,51.63a16.16,16.16,0,0,0-1.67,8A16.81,16.81,0,0,0,162,66s2.78,6,12.14,6.28a20,20,0,0,0,5-.33c1.52-.3,5.07-1,7.54-3.44.48-.47,1.27-1.36,1.89-2.09.78-.93,1.39-1.74,1.8-2.29v7.25h7.79v-32A18.91,18.91,0,0,0,196.77,33Zm-6.36,21.93a13.26,13.26,0,0,1-18.18,10.32A7.08,7.08,0,0,1,168.14,60s-.49-3.89.49-5.41a7.08,7.08,0,0,1,1.3-1.86A8.34,8.34,0,0,1,172.61,51,14.35,14.35,0,0,1,176,49.94l14.41-2.14Z" fill="currentColor"></path>
<path class="color-1" d="M212.48,24.76h7.85v9.9s2.84-8.82,9.73-10.15a13.63,13.63,0,0,1,7.49.25v7.55a11.38,11.38,0,0,0-2.36-1,10.93,10.93,0,0,0-6.48.14,11.15,11.15,0,0,0-3.35,1.95c-4.06,3.39-4.71,8.58-5,10.44a15.07,15.07,0,0,0-.14,1.77l-.06,25.84h-7.65Z" fill="currentColor"></path>
<path class="color-1" d="M245.82,24.76v46.7h7.79V42.78a21.6,21.6,0,0,1,.81-3.56,15.36,15.36,0,0,1,1.79-4.14,10.83,10.83,0,0,1,2.19-2.58,10.46,10.46,0,0,1,5.12-2.31,10.71,10.71,0,0,1,3.39,0,10.39,10.39,0,0,1,3.76,1.22,10,10,0,0,1,3.07,2.69,10.66,10.66,0,0,1,1.67,3.56,14.14,14.14,0,0,1,.59,4.43V71.46h7.77V43.52A13.93,13.93,0,0,1,284.5,39a14.86,14.86,0,0,1,1.81-3.55,12.87,12.87,0,0,1,2.35-2.75A10.76,10.76,0,0,1,301,31.34a9.85,9.85,0,0,1,3.47,3.41A13.1,13.1,0,0,1,306,40.22c.11.93.14,1.71.15,2.25v29h7.77V40.7a19.34,19.34,0,0,0-1.22-6.94c-.73-1.94-2.17-5.74-5.91-7.95a15.17,15.17,0,0,0-5.44-1.75,21.76,21.76,0,0,0-5.1-.15,16.52,16.52,0,0,0-5,1.09,15.63,15.63,0,0,0-2.72,1.42,16.51,16.51,0,0,0-4.29,4,11.58,11.58,0,0,0-.67,1c-.47.68-.92,1.36-1.34,2a12.19,12.19,0,0,0-1.29-3.07,13.09,13.09,0,0,0-4.84-4.65,14.15,14.15,0,0,0-5.31-1.63,18,18,0,0,0-6.93.45A14,14,0,0,0,259,26.65a19.49,19.49,0,0,0-2,1.63,19.69,19.69,0,0,0-3.39,4.11V24.73Z" fill="currentColor"></path>
<g id="layer1">
<circle class="color-2" cx="12" cy="76" fill="currentColor" id="path4409-66" r="12"></circle>
<circle class="color-3" cx="76" cy="76" fill="currentColor" id="path4409-4-5" r="12"></circle>
<circle class="color-4" cx="44" cy="76" fill="currentColor" id="path4409-6-7" r="12"></circle>
<circle class="color-4" cx="12" cy="44" fill="currentColor" id="path4409-7-8" r="12"></circle>
<circle class="color-4" cx="76" cy="44" fill="currentColor" id="path4409-4-2-0" r="12"></circle>
<circle class="color-2" cx="44" cy="44" fill="currentColor" id="path4409-6-6-3" r="12"></circle>
<circle class="color-3" cx="12" cy="12" fill="currentColor" id="path4409-5-3" r="12"></circle>
<circle class="color-2" cx="76" cy="12" fill="currentColor" id="path4409-4-1-0" r="12"></circle>
<circle class="color-4" cx="44" cy="12" fill="currentColor" id="path4409-6-2-7" r="12"></circle>
</g>
</g>
</g>
</g>
</g>
</svg>